<svg xmlns="http://www.w3.org/2000/svg" viewBox="0 0 332.18 81.55"><defs><style>.cls-1{fill:#fff;}</style></defs><title>Asset 3</title><g id="Layer_2" ><g id="Layer_3" ><path class="cls-1" d="M94.74,29.53H90.35A14.51,14.51,0,0,1,95,21.32a12,12,0,0,1,8-2.87A13.21,13.21,0,0,1,109.26,20a11.38,11.38,0,0,1,4.51,4.14,10.26,10.26,0,0,1,1.6,5.45q0,5.56-5.54,8.82a12.59,12.59,0,0,1,5.1,3.69,11.84,11.84,0,0,1,2.81,7.68,13.7,13.7,0,0,1-1.93,7,13.45,13.45,0,0,1-5.28,5.14,15.35,15.35,0,0,1-7.47,1.81,13.69,13.69,0,0,1-9.28-3.2Q90,57.3,88.91,51.09h4.22a12.26,12.26,0,0,0,3.19,6.06,9.87,9.87,0,0,0,6.8,2.38,10.21,10.21,0,0,0,7.53-2.82,9,9,0,0,0,2.84-6.59,8.53,8.53,0,0,0-1.42-4.72,9.06,9.06,0,0,0-3.81-3.31,21,21,0,0,0-7.39-1.37v-4a13.67,13.67,0,0,0,5.39-1,7.91,7.91,0,0,0,3.53-2.65,6.12,6.12,0,0,0,1.09-3.52,6.37,6.37,0,0,0-2.24-4.86A8,8,0,0,0,103,22.64a7.58,7.58,0,0,0-4.8,1.57A11.81,11.81,0,0,0,94.74,29.53Z"/><path class="cls-1" d="M120.37,43.51h2.51V46.3a8.94,8.94,0,0,1,2.37-2.47,4.72,4.72,0,0,1,2.6-.82,4.52,4.52,0,0,1,2.18.65l-1.28,2.08a3.52,3.52,0,0,0-1.3-.34,3.57,3.57,0,0,0-2.37,1,6.29,6.29,0,0,0-1.74,3.14,29.73,29.73,0,0,0-.46,6.61v6.47h-2.51Z"/><path class="cls-1" d="M150.32,36.12V62.63h-2.43V59.34a10.45,10.45,0,0,1-3.47,2.83,9.71,9.71,0,0,1-11.15-2A9.89,9.89,0,0,1,130.4,53,9.71,9.71,0,0,1,133.3,46a9.45,9.45,0,0,1,7-2.94,9,9,0,0,1,4.26,1,9.67,9.67,0,0,1,3.35,3V36.12Zm-9.84,9.27a7.34,7.34,0,0,0-3.79,1,7.46,7.46,0,0,0-2.77,2.83,7.73,7.73,0,0,0,0,7.73,7.59,7.59,0,0,0,2.78,2.87,7.35,7.35,0,0,0,3.75,1,7.68,7.68,0,0,0,3.83-1,7.09,7.09,0,0,0,2.78-2.76,7.86,7.86,0,0,0,1-3.92,7.58,7.58,0,0,0-2.19-5.54A7.23,7.23,0,0,0,140.48,45.39Z"/><path class="cls-1" d="M211.24,27.53l-3.4,2.61a18.68,18.68,0,0,0-6.75-5.55,19.79,19.79,0,0,0-8.66-1.89,19.12,19.12,0,0,0-9.55,2.47,17.84,17.84,0,0,0-6.81,6.65,18.45,18.45,0,0,0-2.42,9.39,17.62,17.62,0,0,0,5.41,13.16,18.73,18.73,0,0,0,13.63,5.27,19.16,19.16,0,0,0,15.15-7.09l3.4,2.58a21.64,21.64,0,0,1-8,6.34,25.19,25.19,0,0,1-10.77,2.24q-11.31,0-17.84-7.52a22.75,22.75,0,0,1-5.48-15.36,21.37,21.37,0,0,1,6.63-15.92,22.88,22.88,0,0,1,16.63-6.46,24.43,24.43,0,0,1,10.9,2.39A21.16,21.16,0,0,1,211.24,27.53Z"/><path class="cls-1" d="M248,30.76V62.63h-4V57.15a17.74,17.74,0,0,1-5.78,4.72,15.72,15.72,0,0,1-7,1.58,15.54,15.54,0,0,1-11.56-4.91,16.46,16.46,0,0,1-4.79-11.93,16.13,16.13,0,0,1,4.84-11.78,15.75,15.75,0,0,1,11.63-4.89,15,15,0,0,1,7.1,1.67,16.14,16.14,0,0,1,5.58,5V30.76Zm-16.39,3.13a12.35,12.35,0,0,0-10.93,6.41,12.92,12.92,0,0,0,0,12.88A12.61,12.61,0,0,0,225.3,58a12.11,12.11,0,0,0,6.24,1.71,12.71,12.71,0,0,0,6.38-1.7,11.84,11.84,0,0,0,4.64-4.59,13.16,13.16,0,0,0,1.63-6.53,12.67,12.67,0,0,0-3.65-9.24A12.07,12.07,0,0,0,231.57,33.89Z"/><path class="cls-1" d="M270.22,34.24,267.58,37c-2.19-2.13-4.34-3.2-6.43-3.2a4.86,4.86,0,0,0-3.42,1.32,4.09,4.09,0,0,0-1.43,3.08,4.55,4.55,0,0,0,1.18,3,16.52,16.52,0,0,0,4.93,3.37c3,1.58,5.13,3.1,6.22,4.57a8.29,8.29,0,0,1,1.62,5,9,9,0,0,1-2.76,6.65,9.45,9.45,0,0,1-6.9,2.72,12,12,0,0,1-5.26-1.2,11.28,11.28,0,0,1-4.15-3.31L253.75,56q3.15,3.54,6.67,3.54a6,6,0,0,0,4.2-1.58,4.89,4.89,0,0,0,1.73-3.72,4.78,4.78,0,0,0-1.14-3.13,18.59,18.59,0,0,0-5.17-3.4c-2.88-1.49-4.84-2.95-5.87-4.4a8.24,8.24,0,0,1-1.56-5,8.05,8.05,0,0,1,2.48-6,8.64,8.64,0,0,1,6.27-2.4Q265.76,29.94,270.22,34.24Z"/><path class="cls-1" d="M278.06,18.92h4.1V30.76h6.5V34.3h-6.5V62.63h-4.1V34.3h-5.6V30.76h5.6Z"/><path class="cls-1" d="M291.2,18.45h4.1V62.63h-4.1Z"/><path class="cls-1" d="M327.66,52.05l3.46,1.82a18.56,18.56,0,0,1-3.93,5.39,15.5,15.5,0,0,1-5,3.12,17.58,17.58,0,0,1-6.31,1.07q-7.8,0-12.2-5.11a17.26,17.26,0,0,1-4.4-11.56A17.06,17.06,0,0,1,303,36a15.23,15.23,0,0,1,12.64-6,15.74,15.74,0,0,1,13,6.18A17.3,17.3,0,0,1,332.18,47H303.49a13,13,0,0,0,3.55,9.1,11.32,11.32,0,0,0,8.48,3.55,13.77,13.77,0,0,0,4.74-.84,12.61,12.61,0,0,0,3.91-2.25A19,19,0,0,0,327.66,52.05Zm0-8.58a13.35,13.35,0,0,0-2.39-5.24,11.25,11.25,0,0,0-4.15-3.17,12.71,12.71,0,0,0-5.42-1.2,11.71,11.71,0,0,0-8.07,3,13.62,13.62,0,0,0-3.73,6.59Z"/><path class="cls-1" d="M40.77,0A40.78,40.78,0,1,0,81.55,40.78,40.77,40.77,0,0,0,40.77,0Zm2.51,77.14H38.45V41.94h4.83Zm18.49-5.63c-1.35-20.1-5.14-32-5.14-32l7.84-4.35V20.39H53.63v8.08H46.77V20.39H35.57v8.08h-6.8V20.39H17.26V35.08L25,39.49S20.7,51.21,19.65,71.43a37.23,37.23,0,1,1,42.12.08Z"/></g></g></svg>